<svg xmlns="http://www.w3.org/2000/svg" viewBox="0 0 120 120"><defs><linearGradient id="sh" x1="0" y1="0" x2="0" y2="1"><stop offset="0" stop-color="#fff" stop-opacity=".55"/><stop offset="1" stop-color="#fff" stop-opacity="0"/></linearGradient></defs><g stroke="#FFFFFF" stroke-width="11" fill="none" stroke-linejoin="round" stroke-linecap="round">
<path d="M34 14 L86 14 L86 40 L34 40 Z" fill="#FFF6E2"/>
<path d="M18 40 L102 40 Q106 40 106 44 L106 76 Q106 80 102 80 L18 80 Q14 80 14 76 L14 44 Q14 40 18 40 Z" fill="#1D9E75"/>
<path d="M34 64 L86 64 L86 106 L34 106 Z" fill="#FFFFFF"/>
<path d="M46 80 L74 80 M46 92 L66 92" fill="none"/>
</g><g stroke="#3A2E1F" stroke-width="4.2" stroke-linejoin="round" stroke-linecap="round">
<path d="M34 14 L86 14 L86 40 L34 40 Z" fill="#FFF6E2"/>
<path d="M18 40 L102 40 Q106 40 106 44 L106 76 Q106 80 102 80 L18 80 Q14 80 14 76 L14 44 Q14 40 18 40 Z" fill="#1D9E75"/>
<path d="M34 64 L86 64 L86 106 L34 106 Z" fill="#FFFFFF"/>
<path d="M46 80 L74 80 M46 92 L66 92" fill="none"/>
</g><path d="M20 44 L100 44 L100 54 L20 54 Z" fill="url(#sh)"/><circle cx="92" cy="52" r="4.5" fill="#F5C243" stroke="#3A2E1F" stroke-width="3"/></svg>