<svg xmlns="http://www.w3.org/2000/svg" viewBox="0 0 120 120"><defs><linearGradient id="sh" x1="0" y1="0" x2="0" y2="1"><stop offset="0" stop-color="#fff" stop-opacity=".5"/><stop offset="1" stop-color="#fff" stop-opacity="0"/></linearGradient></defs><g stroke="#FFFFFF" stroke-width="11" fill="none" stroke-linejoin="round" stroke-linecap="round">
<path d="M8 58 L62 58 L57 88 Q55 100 43 100 L27 100 Q15 100 13 88 Z" fill="#FFF6E2"/>
<path d="M14 66 L56 66 L52 84 Q50 91 43 91 L27 91 Q20 91 18 84 Z" fill="#C98A4B"/>
<path d="M8 58 L62 58 L57 88 Q55 100 43 100 L27 100 Q15 100 13 88 Z" fill="none"/>
<path d="M62 66 Q77 69 74 79 Q71 89 59 87" fill="none"/>
<path d="M5 106 L68 106" fill="none"/>
<path d="M82 4 L116 38 L82 72 L48 38 Z" fill="#FFF6E2"/>
</g><g stroke="#3A2E1F" stroke-width="4.2" stroke-linejoin="round" stroke-linecap="round">
<path d="M8 58 L62 58 L57 88 Q55 100 43 100 L27 100 Q15 100 13 88 Z" fill="#FFF6E2"/>
<path d="M14 66 L56 66 L52 84 Q50 91 43 91 L27 91 Q20 91 18 84 Z" fill="#C98A4B"/>
<path d="M8 58 L62 58 L57 88 Q55 100 43 100 L27 100 Q15 100 13 88 Z" fill="none"/>
<path d="M62 66 Q77 69 74 79 Q71 89 59 87" fill="none"/>
<path d="M5 106 L68 106" fill="none"/>
<path d="M82 4 L116 38 L82 72 L48 38 Z" fill="#FFF6E2"/>
</g><path d="M82 21 L99 38 L82 55 L65 38 Z" fill="none" stroke="#3A2E1F" stroke-width="2.2" opacity=".35"/><path d="M82 4 L82 72 M48 38 L116 38" stroke="#3A2E1F" stroke-width="2.2" opacity=".35"/><path d="M82 12 L108 40 L79 62 L60 34 Z" fill="#1D9E75" fill-opacity=".38" stroke="#0E7A58" stroke-width="4" stroke-linejoin="round"/><circle cx="82" cy="12" r="4" fill="#0E7A58"/><circle cx="108" cy="40" r="4" fill="#0E7A58"/><circle cx="79" cy="62" r="4" fill="#0E7A58"/><circle cx="60" cy="34" r="4" fill="#0E7A58"/><path d="M14 62 L56 62 L55 68 L15 68 Z" fill="url(#sh)"/></svg>